<svg id="Calque_1" xmlns="http://www.w3.org/2000/svg" viewBox="0 0 184.3 184.3"><style>.st0,.st1{fill:#fff;stroke:url(#SVGID_1_);stroke-width:5;stroke-miterlimit:10}.st1{fill:none;stroke:url(#SVGID_2_);stroke-linejoin:round}.st2{fill:url(#SVGID_3_)}.st3{fill:none;stroke:url(#SVGID_4_);stroke-width:5;stroke-linejoin:round;stroke-miterlimit:10}</style><g id="Nous_contacter"><linearGradient id="SVGID_1_" gradientUnits="userSpaceOnUse" x1="70.32" y1="40.192" x2="70.32" y2="130.324"><stop offset=".05" stop-color="#e62a32"/><stop offset=".166" stop-color="#e63132"/><stop offset=".307" stop-color="#e84131"/><stop offset=".462" stop-color="#eb5b30"/><stop offset=".625" stop-color="#ef7a2b"/><stop offset=".796" stop-color="#f59e19"/><stop offset=".971" stop-color="#fec500"/><stop offset="1" stop-color="#fc0"/></linearGradient><path class="st0" d="M22.1 127.8h96.4c6.6 0 12-5.4 12-12V54.7c0-6.6-5.4-12-12-12H22.1c-6.6 0-12 5.4-12 12v61.1c0 6.6 5.4 12 12 12z"/><linearGradient id="SVGID_2_" gradientUnits="userSpaceOnUse" x1="70.349" y1="54.352" x2="70.349" y2="90.021"><stop offset=".05" stop-color="#e62a32"/><stop offset=".166" stop-color="#e63132"/><stop offset=".307" stop-color="#e84131"/><stop offset=".462" stop-color="#eb5b30"/><stop offset=".625" stop-color="#ef7a2b"/><stop offset=".796" stop-color="#f59e19"/><stop offset=".971" stop-color="#fec500"/><stop offset="1" stop-color="#fc0"/></linearGradient><path class="st1" d="M10.1 58.5l60.2 29 60.2-30.9"/><linearGradient id="SVGID_3_" gradientUnits="userSpaceOnUse" x1="111.223" y1="93.451" x2="128.59" y2="123.764"><stop offset=".05" stop-color="#e62a32"/><stop offset=".421" stop-color="#ee722c"/><stop offset="1" stop-color="#fc0"/></linearGradient><path class="st2" d="M128.4 123.9c-28.7 16.4-59.4 20.4-61.9 16l-4.4-7.7c-2.5-4.4-1-10.1 3.4-12.6l15.1-8.7 10.9 9.5 50.9-29.1-4-13.4L157 67.2c4.4-2.5 10.1-1 12.6 3.4l4.4 7.7c2.5 4.4-17 29.2-45.6 45.6z"/><linearGradient id="SVGID_4_" gradientUnits="userSpaceOnUse" x1="200.837" y1="-152.133" x2="200.837" y2="-112.197" gradientTransform="rotate(-29.808 612.695 140.242)"><stop offset=".05" stop-color="#e62a32"/><stop offset=".166" stop-color="#e63132"/><stop offset=".307" stop-color="#e84131"/><stop offset=".462" stop-color="#eb5b30"/><stop offset=".625" stop-color="#ef7a2b"/><stop offset=".796" stop-color="#f59e19"/><stop offset=".971" stop-color="#fec500"/><stop offset="1" stop-color="#fc0"/></linearGradient><path class="st3" d="M128.4 123.9c-28.7 16.4-59.4 20.4-61.9 16l-4.4-7.7c-2.5-4.4-1-10.1 3.4-12.6l15.1-8.7 10.9 9.5 50.9-29.1-4-13.4L157 67.2c4.4-2.5 10.1-1 12.6 3.4l4.4 7.7c2.5 4.4-17 29.2-45.6 45.6z"/></g></svg>