<svg xmlns="http://www.w3.org/2000/svg" viewBox="0 0 748.82 260.84"><defs><style>.a{fill:#ec4047}.b{fill:#ffd33b}</style></defs><path class="a" d="M247.72 253.51L298.49 7.07h138.43l-9.11 44.26h-91.5L302.9 213.29h91.54l-8.29 40.22H247.72z"/><path class="b" d="M748.82 110.69l-11.55 52.75H0l11.65-52.75h737.17z"/><path class="a" d="M169.36 253.51l41.72-202.18h58.01l8.97-44.26h-159.6l-9.22 44.26h54.8L122.5 253.51h46.86zM623.42 80.68C607.33 49.19 542.14 27.22 490.14 77c-50.2 48.08-24.91 108.39-4.4 123.77s65.93 30 116.45-9.53l39.55 21.25c-76.17 63-138.43 56.38-182.34 25.62s-79.84-114.77-3.68-190.19S624.9-4.27 663 51.37zm-238.18 66.95l12.02-54.48h-45.41l-11.9 54.48h45.29z"/></svg>