<?xml version="1.0" encoding="utf-8"?>
<!-- Generator: Adobe Illustrator 25.2.1, SVG Export Plug-In . SVG Version: 6.00 Build 0)  -->
<svg version="1.1" id="Calque_1" xmlns="http://www.w3.org/2000/svg" xmlns:xlink="http://www.w3.org/1999/xlink" x="0px" y="0px"
	 viewBox="0 0 340.65 440.91" style="enable-background:new 0 0 340.65 440.91;" xml:space="preserve">
<style type="text/css">
	.st0{fill:#F20017;}
</style>
<path class="st0" d="M112.19,45.76l0.4,0.24c0.38,0.25,0.87,0.14,1.15-0.22c2.66-3.44,7.22-4.61,9.63-3.24
	c4.89,2.78,3.67,7.91,1.69,10.59c0.14,0.11,0.38,0.32,0.57,0.54c4.02-1.81,9.23-1.44,13.21,0.33c4.89,2.18,7.94,5.21,10.41,8.76
	c0.49,0.7,1.56,0.36,1.56-0.49c0-7.82-3.78-16.4-12.42-20.79c-8.54-4.34-19.93-4.64-26.46,3.01
	C111.58,44.89,111.73,45.51,112.19,45.76 M100.8,57.11c2.19-1.26,4.53-2.03,6.78-2.82c0.49-0.17,0.71-0.74,0.46-1.2
	c-0.56-1.05-0.99-2.14-1.07-3.28c-0.04-0.49-0.48-0.85-0.97-0.77c-1.08,0.17-2.27,0.37-3.53,0.67c-3.11,0.75-6.17,2.49-7.1,4.22
	c-0.98,1.82-1.57,4.19-2.21,6.42c-0.22,0.78,0.66,1.4,1.31,0.92C96.48,59.8,98.57,58.39,100.8,57.11z M101.75,112.47
	c-9.54-0.82-14.75-3.76-17.98-7.5c-0.41-0.48-0.17-1.23,0.45-1.37c4.85-1.06,13.36-4.52,17.26-7.45c1.92-1.45,3.69-3.09,5.27-4.9
	c0.52-0.59,0.02-1.49-0.76-1.41c-3.84,0.41-8.34-0.92-10.09-4.46c-0.27-0.54-0.95-0.67-1.38-0.25c-3.04,2.99-9.14,6.04-16.08,7.84
	c-1.01,0.26-3,1.19-3.84,1.84C64,103.13,56.33,119.28,55.8,129.89l-0.09,0.33c-2.59,4.83-5.92,13.65-2.85,27.25
	c3.95,17.48,13.34,25.39,23.36,32.74c4.22,3.1,8.92,5.43,13.92,7.47c0.8,0.33,1.5-0.63,0.97-1.3
	c-8.13-10.18-13.21-19.74-13.21-28.38c0-12.72,11.01-18.61,19.77-19.51c0.22-0.02,0.42-0.13,0.55-0.31c1.38-1.79,3.34-3.37,4.85-4.4
	c0.36-0.24,0.46-0.72,0.24-1.1c-4.71-8.25-5.78-18.86-0.87-28.98C102.69,113.14,102.35,112.52,101.75,112.47z M156.9,1.78
	c-4.77,0.45-10.01,2.52-14.06,6.78c-0.48,0.5-1.33,0.25-1.45-0.44c-0.38-2.28-0.14-5.25-0.26-7.33c-0.04-0.64-0.74-1.01-1.29-0.68
	c-4.8,2.93-9.55,6.73-13.03,13.57c-0.34,0.67-1.35,0.6-1.56-0.12c-0.59-2-0.47-4.41-0.58-6.16c-0.04-0.72-0.91-1.07-1.44-0.57
	c-3.79,3.54-7.19,8.98-8.96,14.29c-0.24,0.73-1.26,0.78-1.58,0.08c-0.67-1.46-1-3.28-1.51-4.63c-0.2-0.53-0.9-0.7-1.33-0.33
	c-8.27,7.01-12.04,18.81-10.52,28.67c0.07,0.45,0.49,0.77,0.95,0.72c2.16-0.23,4.83-1.32,7.56-1.07c0.3,0.03,0.59-0.1,0.77-0.34
	c8.64-11.93,24.21-12.88,34.92-5.98c0.17,0.11,0.38,0.16,0.58,0.13c8.82-1.22,14.63-5.7,16.77-11.72
	c2.41-6.78,1.03-17.78-3.18-24.47C157.53,1.91,157.22,1.75,156.9,1.78z M120.94,53.94c-0.4-0.33-0.4-0.91-0.03-1.28
	c0.4-0.4,0.74-0.89,0.99-1.46c0.9-2.05,0.27-4.31-1.39-5.03c-1.67-0.73-3.74,0.35-4.64,2.4c-0.23,0.52-0.35,1.05-0.39,1.57
	c-0.04,0.51-0.53,0.87-1.03,0.74c-0.46-0.12-0.89-0.04-1.26,0.48c-0.42,0.59-0.38,1.65,0.35,2.89c0.51,0.86,1.29,1.79,2.25,2.52
	c0.82,0.62,1.63,1.27,2.35,1.98c0.37,0.37,0.97,0.32,1.27-0.1c0.68-0.94,1.54-1.85,2.39-2.59c0.35-0.3,0.39-0.83,0.09-1.18
	C121.6,54.53,121.26,54.21,120.94,53.94z M115.11,68.63c-0.06-0.73-0.96-1.03-1.48-0.51c-2.28,2.29-4.98,3.49-8.12,5.05
	c-3.53,1.76-6.19,3.96-6.19,7.52c0,2.27,1.93,4.39,5.04,4.39c3.11,0,5.78-1.23,8.05-4.69C114.86,76.65,115.48,72.94,115.11,68.63z
	 M87.59,77.06c0,2.76,1.82,3.88,3.7,3.88c2.73,0,3.91-1.76,5.76-5.55c1.24-2.55,2.75-4.46,4.7-5.99c0.67-0.52,0.27-1.58-0.58-1.53
	c-5.09,0.31-9.07,2.03-11.71,4.79C88.27,73.9,87.67,75.6,87.59,77.06z M99.68,61.57c-0.69,0.37-0.57,1.4,0.19,1.58
	c2.48,0.61,5.5,0.78,7.53,0.55c1.4-0.15,4-0.84,5.53-1.24c0.51-0.13,0.79-0.7,0.56-1.18c-0.29-0.63-0.66-1.28-1.13-1.92
	c-0.56-0.77-1.09-1.47-1.57-2.16c-0.23-0.32-0.64-0.45-1-0.31c-2.32,0.89-4.62,1.92-6.85,3.02
	C102.05,60.34,100.85,60.95,99.68,61.57z M287.45,124.36c-6.84-5.2-15.3-8.94-27.97-11.5c-0.6-0.12-0.88-0.82-0.51-1.32
	c2.35-3.23,4.2-6.76,5.35-10.74c0.17-0.58-0.33-1.15-0.93-1.06c-10.36,1.57-23.49,5.73-32.49,10.82
	c-7.72,4.37-13.99,13.43-15.35,25.57c-0.08,0.69,0.65,1.18,1.25,0.83c7.54-4.37,15.79-7.53,24.23-9.3l0.31-0.13
	c3.93-2.75,7.64-5.56,10.94-8.59c0.15-0.13,0.34-0.21,0.54-0.22c13.07-0.45,24.12,2.93,33.79,7.1
	C287.52,126.2,288.24,124.97,287.45,124.36z M130.22,118.78c-4.28,4.5-11.98,11.46-14.97,17.18c-0.33,0.62,0.24,1.34,0.93,1.18
	c5.24-1.17,11.67-0.8,16.76,0.67c0.69,0.2,1.32-0.49,1-1.14c-2.35-4.89-1.94-11.48-2.28-17.35
	C131.62,118.59,130.73,118.25,130.22,118.78z M106.94,136.57c0.27,0.69,1.25,0.7,1.54,0.02c3.55-8.17,9.42-13.7,15.02-19.38
	c3.91-3.97,6.92-7.45,9.42-11.66c0.37-0.62,1.31-0.5,1.52,0.19c1.45,4.72,2.44,9.64,2.36,14.82c-0.07,4.32-0.13,7.7,0.37,10.51
	c0.17,0.93,1.52,0.9,1.65-0.04c1.41-9.57,5.85-17.17,8.31-23.56c3.76-9.81,4.93-16.62,4.93-22.64c0-18.17-10.37-27.5-20-27.5
	c-6.72,0-9.97,4.49-10.93,10.04c-0.83,4.83-0.92,10.85-4.92,18.75c-2.85,5.64-8.25,13.29-19.34,18.52c-0.73,0.35-0.6,1.43,0.19,1.59
	c6.27,1.23,11.76,0.79,16.47,0.03c0.84-0.14,1.31,0.92,0.66,1.47c-5.99,5.04-8.17,10.85-8.98,17.3
	C104.76,128.73,105.62,133.11,106.94,136.57z M290.39,307.9c-0.39,0.88-1.72,0.54-1.61-0.41c1.47-12.38,7.66-24.81,14.38-36.06
	c10.04-16.83,16.02-35.49,17.2-53.43c2.24-33.85-24.27-67.57-54.3-73.95c-0.95-0.2-0.89-1.59,0.08-1.67
	c16.32-1.32,34.99,3.28,47.35,12.3c13.69,10,27.15,32.61,27.15,60.86c0,27.45-8.07,43.54-14.3,59.94
	c-6.78,17.84-11.28,36.71-11.1,54.6c0.01,0.89-1.21,1.18-1.59,0.37c-7-14.9-6.03-30.83-4.71-41.73c0.09-0.7-0.68-1.18-1.29-0.8
	C300.68,292.22,294.87,297.86,290.39,307.9z M314.89,218.73c1.01-15.26-4.03-30.34-12.03-42.84c-7.05-11.01-21.43-23.94-38.62-27.02
	c-0.93-0.16-1.37,1.12-0.54,1.56c7.77,4.17,14.21,10.64,18.24,17.66c0.4,0.69-0.3,1.49-1.04,1.2c-3.99-1.58-8.01-2.53-12.18-3.08
	c-0.91-0.12-1.33,1.09-0.55,1.55c15.37,9.07,23,25.68,23,40.99c0,23.54-16.71,33.81-25.56,36.45c-5.09,1.52-10.56,1.81-15.83,0.93
	c-0.86-0.14-1.34,1-0.62,1.51c8.01,5.62,21.1,6.06,31.3,1.91c6.6-2.69,12.48-7.77,16.05-13.16c0.44-0.66,1.47-0.42,1.54,0.37
	c0.59,6.12-0.32,12.07-1.66,16.95c-0.22,0.81,0.76,1.4,1.39,0.83C305.62,247.38,313.81,235.09,314.89,218.73z M289.23,250.75
	c-12.34,7.46-24.71,7.46-33.93,4.93c-0.29-0.08-0.6,0-0.81,0.22c-4.9,5.07-11.19,10.56-21.14,12.4c-0.85,0.16-0.92,1.37-0.1,1.63
	c5.03,1.59,9.61,1.18,13.59-0.44c0.71-0.29,1.39,0.48,1.06,1.16c-3.3,6.7-8.52,10.75-13.47,13.94c-0.75,0.48-0.34,1.63,0.54,1.55
	c7.56-0.72,14.5-4.32,19.35-8.03c0.61-0.47,1.46,0.05,1.33,0.81c-2.29,14.11-2.45,26.24-0.59,36.71c0.18,0.98,1.6,0.9,1.67-0.1
	c1.06-16.89,7.71-27.79,14.59-35.6c0.46-0.52,1.3-0.27,1.45,0.41c1.07,5.02,2.93,9.14,4.92,12.56c0.41,0.72,1.49,0.48,1.57-0.35
	c1.68-18.39,6.81-31.49,11.17-40.74C290.79,251.06,289.95,250.32,289.23,250.75z M226.79,263.1c-7.74-9.09-9.9-18.03-10.64-27.02
	c-0.06-0.71,0.72-1.17,1.3-0.77c4.67,3.22,10.18,5.65,16.11,5.88c0.79,0.03,1.17-0.96,0.57-1.48
	c-12.33-10.76-22.36-24.65-30.37-43.13c-6.54-15.11-14.59-28.22-28.98-39.03c-6.7-5.03-15.54-10.02-25.52-13.03
	c-0.88-0.27-1.46,0.88-0.75,1.46c17.21,14.06,16,32.73,10.6,43.12c-0.35,0.68,0.3,1.45,1.02,1.19c3.86-1.41,6.68-3.33,8.58-4.98
	c0.46-0.4,1.17-0.2,1.36,0.38c5.14,16.32,4.03,31.82,1.13,40.71c-0.24,0.72,0.55,1.36,1.22,0.99c8.76-4.87,14.87-13.28,17.35-20.91
	c0.25-0.77,1.31-0.79,1.59-0.03c7.02,19.12,4.58,35.8-2.2,50.32c-0.36,0.76,0.5,1.52,1.21,1.06c2.65-1.71,5.56-3.93,8.08-6.23
	c0.55-0.5,1.44-0.09,1.4,0.66c-0.75,13.88,3.21,24.96,9.3,34.4c0.46,0.71,1.58,0.36,1.55-0.49c-0.4-11.26,0.88-22.22,2.14-30.5
	c0.12-0.79,1.18-0.99,1.57-0.29c3.06,5.57,7.23,8.06,11.56,9.09C226.74,264.65,227.32,263.72,226.79,263.1z M192.25,285.3
	c1.41-5.06-0.07-9.63,0-14.22c0.04-2.74,0.95-5.88,1.98-8.92c0.26-0.76-0.59-1.4-1.26-0.96c-4.43,2.99-9.69,5.71-14.66,7.82
	c-0.79,0.33-1.52-0.62-0.99-1.29c4.63-5.87,9.01-13.54,11.13-21.26c0.15-0.53-0.26-1.06-0.81-1.06
	c-10.36,0.02-25.78-1.16-37.93-6.21l-0.41-0.06c-5.45,0.74-14.01,1.36-22.84,0.07c-0.65-0.1-1.17,0.55-0.9,1.16
	c4.51,10.1,12.9,18.15,26.31,26.45c6.12,3.79,13.3,8.94,15.08,16.62c0.11,0.49,0.62,0.79,1.1,0.62c2.74-0.96,3.94-0.31,5.13,1.92
	c1.06,2,2.41,4.03,3.88,4.05c1.2,0.01,1.6-0.32,3.42-0.7c1.12-0.2,2.2-0.13,2.96,0.22c1.38,0.62,2.32,0.85,3.12,0.73
	C189.63,289.8,191.41,288.32,192.25,285.3z M135.6,261.3c-5.41-4.66-12.63-11.54-16.44-22.9c-0.09-0.28-0.33-0.49-0.62-0.55
	c-5.61-1.14-11.21-2.79-16.45-5.13c-0.58-0.26-1.24,0.18-1.18,0.81c0.25,2.74,1.62,5.99,1.92,9.17c0.25,2.59-0.84,2.76-1.98,2.96
	c-1.37,0.25,0.37,4.49,7.45,8.88c0.31,0.19,0.47,0.55,0.39,0.9c-0.71,2.87-1.03,8.32,3.9,11.51c3.13,2.03,7.5,1.96,13.52-1.18
	c3.01-1.57,5.65-2.39,9.08-3.02C135.89,262.62,136.14,261.76,135.6,261.3z M141.05,233.14c-2.72-2.19-5.17-4.89-6.66-6.76
	l-0.35-0.25c-11.72-4.35-21.67-10.08-32.37-18.67l-0.28-0.15c-9.31-2.75-18.41-6.8-29.87-15.56c-0.66-0.51-1.58,0.16-1.3,0.95
	c9.49,27.18,36.12,42.59,70.34,41.94C141.34,234.62,141.66,233.63,141.05,233.14z M181.28,228.52c2.72,0.04,6.11,0.04,8.75-0.19
	c0.43-0.04,0.75-0.4,0.76-0.83c0.01-2.07-0.26-5.2-0.82-7.97c-0.14-0.71-1.06-0.91-1.49-0.32c-1.95,2.65-4.32,5.36-7.65,7.79
	C180.16,227.48,180.47,228.51,181.28,228.52z M127.06,217.58c13.98,6.59,26.38,9.06,38.28,10.22c0.39,0.04,0.76-0.19,0.88-0.56
	c0.44-1.27,0.83-2.56,1.16-3.87c-0.16-0.36-0.27-0.61-0.42-0.96c-13.48-7.33-25.04-7.87-29.64-7.12c-2.43,0.4-5.98,0.83-9.88,0.69
	C126.54,215.95,126.24,217.2,127.06,217.58z M151.49,211.65c6.51,1.17,11.41,3.09,16.01,5.33c0.52,0.25,1.12-0.08,1.2-0.65
	c0.27-1.86,0.34-3.66,0.33-5.72c0-0.45-0.35-0.82-0.8-0.84c-3.02-0.11-9.03-0.69-13.24-1.8c-0.25,0.05-0.45,0.09-0.7,0.14
	c-0.89,0.67-2,1.36-3.08,1.98C150.53,210.48,150.72,211.51,151.49,211.65z M189.77,233.44c-9.48,0.56-25.33,0.49-41.61-3.1
	c-0.91-0.2-1.43,1.01-0.65,1.52c11.74,7.68,28.8,8.85,41.76,8.31c0.38-0.02,0.7-0.29,0.78-0.66c0.31-1.38,0.54-3.44,0.6-5.19
	C190.67,233.82,190.27,233.41,189.77,233.44z M160.65,204.49c2.61,0.25,5.34,0.36,7.57,0.22c0.45-0.03,0.79-0.43,0.78-0.88
	c-0.11-2.98-0.49-5.75-1.07-8.73c-0.15-0.76-1.15-0.94-1.54-0.28c-1.74,2.97-3.85,5.75-6.25,8.22
	C159.65,203.57,159.95,204.42,160.65,204.49z M129.69,211.91c14.06,0,24.09-6.29,30.78-14.93c0.48-0.62-0.08-1.51-0.85-1.34
	c-2.8,0.6-6.95,1.09-10.49,0.93c-0.78-0.04-1.09-1-0.49-1.5c5.65-4.63,9.63-12.38,9.63-20.93c0-18.29-17.78-33.18-35.33-33.18
	c-11.87,0-18.57,7.28-22.21,12.2c-0.16,0.22-0.42,0.33-0.69,0.33c-9.92-0.29-17.76,5.46-17.76,14.51
	C82.29,180.5,101.1,211.91,129.69,211.91z M276.04,93.4c15.36,0,29.78,3.95,40,14.69c8.1,8.52,11.73,21.51,11.17,31.74
	c-0.05,0.95,1.26,1.26,1.62,0.38c7.42-18.21,2.63-34.9-5.94-46.65c-12.13-16.63-33.16-25.26-55.95-25.26
	c-34.29,0-59.47,18.74-71.9,35.43c-10.99,14.77-15.81,33.87-13.85,52.18c0.02,0.22,0.13,0.41,0.3,0.55
	c1.93,1.62,3.79,3.32,5.58,5.09c0.49,0.49,1.31,0.21,1.41-0.47C194.56,120.08,232.42,93.4,276.04,93.4z M249.3,64.85
	c13.24-2.31,24.08-2.27,35.24-0.04c0.16,0.03,0.33,0.02,0.48-0.05c9.02-3.72,20.17-9.04,29.29-17.57c0.68-0.64-0.01-1.75-0.88-1.4
	c-7.25,2.92-15.12,4.98-25.44,4.49c-0.78-0.04-1.11-1.02-0.49-1.5c5.27-4.1,17.04-14.33,21.98-33.08c0.22-0.86-0.87-1.43-1.45-0.76
	c-19.99,22.88-40.9,37.99-59.27,48.36C247.93,63.75,248.37,65.01,249.3,64.85z M210.85,125.72c-7.11,7.9-11.71,17.48-14.4,26.7
	c-0.26,0.88,0.9,1.46,1.47,0.74c3.46-4.31,7.39-8.33,11.84-11.62c0.22-0.16,0.34-0.41,0.33-0.68c-0.15-4.41,0.51-9.33,2.18-14.33
	C212.56,125.66,211.46,125.04,210.85,125.72z M272.3,111.81c1.77-3.8,3.09-8.27,3.57-12.1c0.06-0.5-0.35-0.94-0.85-0.94
	c-1.69,0.02-3.38,0.1-5.09,0.22c-0.36,0.03-0.67,0.29-0.75,0.65c-0.82,3.45-2.1,6.81-3.79,9.94c-0.26,0.49,0,1.08,0.54,1.21
	c1.8,0.43,3.6,0.91,5.37,1.46C271.69,112.36,272.12,112.18,272.3,111.81z M260.56,122.69c-1.85-0.1-3.71-0.11-5.57-0.04
	c-0.2,0.01-0.38,0.08-0.53,0.21c-0.57,0.51-1.29,1.13-2.02,1.76c-0.61,0.52-0.22,1.52,0.58,1.48c1.68-0.08,3.48-0.11,4.89-0.08
	c0.15,0,0.3-0.03,0.44-0.11c0.91-0.52,1.8-1.08,2.66-1.67C261.68,123.77,261.37,122.73,260.56,122.69z M273.99,137.96
	c3.03-0.02,6.42,0.12,10.02,0.5c0.96,0.1,1.3-1.25,0.41-1.62c-9.25-3.85-19.27-5.77-29.32-5.53c-13.84,0.33-27.97,4.88-39.81,12.8
	c-8.92,5.97-16.75,14.57-21.76,23.78c-0.16,0.3-0.13,0.66,0.09,0.93c0.72,0.9,1.43,1.82,2.12,2.77l0.66,0.94
	c0.31,0.44,0.93,0.48,1.3,0.08c8.98-9.71,19.82-17.88,31.63-23.75C243.45,141.85,258.9,138.08,273.99,137.96z M268.3,161
	c0.81,0.12,1.29-0.89,0.69-1.44c-5.86-5.36-13.18-9.15-23.61-9.15c-14.57,0-31.33,11.68-45.07,27.16c-0.24,0.27-0.28,0.65-0.11,0.96
	c0.58,1.06,1.2,2.16,1.8,3.25c0.27,0.49,0.92,0.58,1.32,0.19c18.17-17.62,40.23-21.78,53.17-21.78
	C260.56,160.2,264.43,160.45,268.3,161z M266.55,238.49c-0.33,0.71,0.38,1.47,1.09,1.15c9.91-4.54,18.16-14.86,18.16-31.29
	c0-19.53-15.39-40.91-37.93-40.91c-20.26,0-36.27,13.6-42.43,19.91c-0.24,0.25-0.3,0.62-0.15,0.93c1.17,2.46,2.53,5.49,3.7,7.94
	c0.21,0.45,0.76,0.59,1.19,0.35c6.53-3.73,12.32-0.33,13.99,1.3c6.48,6.35,4.39,14.23,1.6,18.88c-0.36,0.6,0.1,1.38,0.8,1.29
	c5.98-0.75,13.36-4.78,17-12.78c0.31-0.69,1.3-0.66,1.56,0.06c2.28,6.49,3.92,13.37,1.21,21.32c-0.18,0.53,0.18,1.11,0.74,1.13
	c8.06,0.32,14.27-2.75,19.06-8.82c0.43-0.55,1.31-0.35,1.47,0.33C269.1,225.46,268.95,233.38,266.55,238.49z M223.37,202.25
	c-1.96-3.05-7.43-5.63-11.93-2.32c-0.31,0.23-0.41,0.65-0.25,1.01c1.19,2.65,2.74,5.53,4.03,7.78c0.3,0.52,1.03,0.57,1.39,0.09
	c2.02-2.68,4.29-4.25,6.42-5.36C223.47,203.22,223.64,202.67,223.37,202.25z M103.25,257.86c-1.13-4.25-5.38-5.51-6.49-9.46
	c-0.1-0.34-0.38-0.6-0.73-0.64c-4.39-0.42-8.58-1.13-13.39-2.38c-8.48-2.19-15.8-4.82-23.18-8.85c-3.66-1.99-7.72-2.73-11.8-3.18
	c-3.25-0.36-7.03-0.19-9.33-0.45c-2.3-0.25-3.67,0.78-5.31,1.65c-1.63,0.87-17.04,9.53-25.21,10.02c-3.64,0.22-7.24,3.99-7.37,7.23
	c-0.12,3.23,1.7,8.12,4.9,8.12c-0.76-1.58-2.27-3.96-2.05-4.43c0.59-1.12,18.52-8.85,23.74-12.94c0.23-0.18,0.53-0.23,0.81-0.13
	c0.16,0.06,0.31,0.11,0.46,0.16c0.43,0.15,0.68,0.61,0.54,1.05c-1.31,3.89-7.68,11.09-8.82,15.52c-1.07,4.16,0.01,8.03,2.67,9.48
	c0.62,0.34,1.38-0.2,1.24-0.89c-0.21-1.01-0.55-1.77-0.26-2.59c0.83-1.61,3.03-2.39,3.65-4.43c1.7-5.64,1.29-12.66,6.31-16.41
	c0.18-0.14,0.42-0.19,0.65-0.15c1.9,0.32,3.64,0.41,5.42,0.39c3.23-0.04,6.22-1.12,7.82-1.42c0.41-0.07,0.82,0.15,0.96,0.54
	c1.88,5.34,0.77,11.11,2.41,16.69c0.81,2.77,2.28,5.02,4.54,6.79c0.35,0.27,0.43,0.66,0.39,1.11c-0.08,0.91,1.19,1.28,1.59,0.46
	c3.38-7.03-1.8-16.41-3-24.87c-0.07-0.52,0.35-0.98,0.88-0.95c4.77,0.32,10.5,2.12,13.12,5.75c1.2,1.66,1.46,4.37,2.08,6.84
	c0.4,1.59,0.07,3.03-0.06,4.53c-0.08,0.86,1.07,1.29,1.53,0.56c1.75-2.8,1.75-6.61,1.75-9.89c0-0.85,1.19-0.87,1.65-0.85
	c3.67,0.23,7.27,1.26,10.61,2.47c6.23,2.26,11.42,4.18,15.91,8.79c0.49,0.51,1.35,0.22,1.43-0.48
	C103.4,259.73,103.47,258.76,103.25,257.86z M173.83,320.82c-1.95-0.04-4.16,0-5.83-0.23c-0.34-0.05-0.69,0.1-0.86,0.4
	c-0.38,0.69-0.74,1.48-1.08,2.24c-0.26,0.57,0.18,1.22,0.81,1.19c2.44-0.13,5.15-0.78,7.36-2.02
	C174.98,321.98,174.68,320.84,173.83,320.82z M160.55,336.81c1.84,3.65,10.31,8.32,11.71,11.76c0.06,0.16,0.17,0.29,0.32,0.38
	c3.15,2.01,4.17,5.82,2.53,8.82c-0.42,0.77-1.59,0.47-1.59-0.41c0.01-1.97-0.25-3.89-1.96-4.07c-1.65-0.18-3.7,0.45-5.71-0.12
	c-2.29-0.66-4.09-2.89-4.98-5.1c-0.14-0.35-0.47-0.56-0.84-0.54c-5.76,0.41-11.49-1.06-17.24-0.17c-0.26,0.04-0.5,0.21-0.62,0.44
	c-2.85,5.4-6.53,12.35-13.7,11.85c-0.35-0.02-0.7,0.15-0.84,0.48c-0.74,1.78-0.43,3.4-0.1,5.15c0.12,0.62-0.46,1.14-1.07,0.97
	c-1.14-0.32-2.15-1.03-2.73-1.9c-0.82-1.24-0.87-2.05-0.8-3.26c0.33-5.65,4.53-9.07,8.47-12.74c0.41-0.39,0.34-1.08-0.16-1.35
	c-2.26-1.18-3.73-0.38-6.68-0.75c-1.08-0.14-2.68,0.47-3.89,0.21c-0.38-0.08-0.78,0.04-0.95,0.38c-1.03,2-3.29,3.01-5.47,2.43
	c-1.2-0.32-1.76,0.66-2.02,1.18c-0.6,1.2-0.1,2.56,0.18,3.91c0.15,0.72-0.63,1.28-1.25,0.9c-0.76-0.46-1.49-0.7-2.03-1.73
	c-0.66-1.25-1.53-3.58-1.87-4.5c-0.09-0.25-0.06-0.52,0.08-0.74c0.58-0.89,2.11-3.21,2.88-3.95c3.13-2.96,6.81-3.95,11.34-3.95
	c6.88,0,14.25-0.8,21.16-1.18c1.15,0,7.43-9.46,9.5-13.07c5.69-8.85,10.23-16.58,14.07-26.31c0.94-2.38,1.54-5.91,1.29-9.33
	c-0.03-0.45,0.29-0.87,0.74-0.91c3.34-0.31,3.86,4.28,6.11,5.39c2.1,1.04,5.38-0.85,8.04-0.17c0.65,0.17,0.83,1,0.33,1.44
	c-9.84,8.71-19.79,20.07-22.6,32.11C159.57,331,159.03,333.78,160.55,336.81z"/>
<path d="M71.23,439.49h-14.7c-0.09,0-0.17-0.06-0.19-0.15l-11.55-45.45c-0.05-0.2-0.33-0.2-0.38,0l-11.36,45.45
	c-0.02,0.09-0.1,0.15-0.19,0.15h-14.7c-0.09,0-0.17-0.06-0.19-0.15L0.01,371.91c-0.03-0.13,0.06-0.25,0.19-0.25h14.97
	c0.09,0,0.17,0.06,0.19,0.15l10.79,45.11c0.05,0.2,0.34,0.2,0.39,0l10.7-45.11c0.02-0.09,0.1-0.15,0.19-0.15h14.03
	c0.09,0,0.17,0.06,0.19,0.15l11.16,45.21c0.05,0.2,0.34,0.2,0.39,0l10.42-45.21c0.02-0.09,0.1-0.15,0.19-0.15h14.98
	c0.13,0,0.22,0.12,0.19,0.25l-17.57,67.43C71.4,439.43,71.32,439.49,71.23,439.49z"/>
<path d="M131.89,439.49H118.6c-0.06,0-0.12-0.03-0.16-0.08c-0.9-1.11-1.38-2.62-1.45-4.51c-0.01-0.17-0.2-0.26-0.32-0.14
	c-4.2,4.04-9.5,6.05-15.93,6.05c-5.19,0-9.28-1.52-12.26-4.56c-2.72-2.91-4.08-6.14-4.08-9.69c0-4.5,1.25-7.98,3.75-10.45
	c2.5-2.47,6.38-4.12,11.64-4.94l5.42-0.95c1.96-0.32,3.28-0.52,3.94-0.62c0.67-0.1,1.36-0.22,2.09-0.38
	c0.73-0.16,1.19-0.29,1.38-0.38c0.19-0.09,0.57-0.3,1.14-0.62c1.52-0.76,2.28-2.12,2.28-4.08c0-3.48-2.63-5.23-7.89-5.23
	c-2.22,0-3.98,0.21-5.27,0.62c-1.3,0.41-2.28,1.11-2.94,2.09c-0.64,0.95-1.1,2.27-1.35,3.96c-0.01,0.1-0.1,0.17-0.19,0.17H85.75
	c-0.12,0-0.21-0.1-0.2-0.22c0.42-5.4,2.47-9.51,6.16-12.32c3.74-2.85,9.12-4.27,16.15-4.27c7.16,0,12.52,1.22,16.1,3.66
	c3.58,2.44,5.37,6.19,5.37,11.26v27.93c0,3.1,0.9,5.55,2.69,7.36C132.14,439.28,132.06,439.49,131.89,439.49z M116.03,419.25v-3.21
	c0-0.14-0.14-0.24-0.27-0.18c-1.21,0.52-3.02,1.02-5.43,1.49l-4.65,0.86c-2.85,0.51-4.86,1.28-6.03,2.33
	c-1.17,1.04-1.76,2.55-1.76,4.51c0,1.9,0.67,3.39,2,4.46c1.33,1.08,3.13,1.62,5.41,1.62c3.42,0,6.06-1.03,7.93-3.09
	C115.09,425.98,116.03,423.05,116.03,419.25z"/>
<path d="M147.66,371.86v67.43c0,0.11-0.09,0.2-0.2,0.2h-13.19c-0.11,0-0.2-0.09-0.2-0.2v-67.43c0-0.11,0.09-0.2,0.2-0.2h13.19
	C147.57,371.66,147.66,371.75,147.66,371.86z"/>
<path d="M165.24,371.86v67.43c0,0.11-0.09,0.2-0.2,0.2h-13.19c-0.11,0-0.2-0.09-0.2-0.2v-67.43c0-0.11,0.09-0.2,0.2-0.2h13.19
	C165.15,371.66,165.24,371.75,165.24,371.86z"/>
<path d="M193.74,389.04c8.04,0,14.38,2.33,19,6.98c4.62,4.65,6.93,11.1,6.93,19.33c0,7.85-2.36,14.08-7.08,18.67
	c-4.72,4.59-10.97,6.89-18.76,6.89c-7.92,0-14.2-2.31-18.86-6.93c-4.65-4.62-6.98-10.96-6.98-19c0-7.98,2.33-14.3,6.98-18.95
	C179.63,391.37,185.89,389.04,193.74,389.04z M193.83,398.92c-1.84,0-3.51,0.38-5.03,1.14c-1.52,0.76-2.82,1.85-3.89,3.28
	c-1.08,1.42-1.92,3.13-2.52,5.13c-0.6,2-0.9,4.17-0.9,6.51c0,3.17,0.52,5.97,1.57,8.41c1.04,2.44,2.5,4.34,4.37,5.7
	c1.87,1.36,4,2.04,6.41,2.04c1.77,0,3.44-0.39,4.99-1.19c1.55-0.79,2.85-1.88,3.9-3.28c1.04-1.39,1.88-3.07,2.52-5.03
	c0.63-1.96,0.95-4.12,0.95-6.46c0-4.94-1.12-8.88-3.37-11.83C200.56,400.4,197.57,398.92,193.83,398.92z"/>
<path d="M223.01,389.99h13.19c0.11,0,0.2,0.09,0.2,0.2v5.66c0,0.19,0.24,0.26,0.36,0.11c1.82-2.46,3.88-4.21,6.2-5.25
	c2.47-1.11,5.51-1.66,9.12-1.66c5.57,0,9.9,1.46,12.97,4.37c3.07,2.91,4.61,7.03,4.61,12.35v33.53c0,0.11-0.09,0.2-0.2,0.2h-13.19
	c-0.11,0-0.2-0.09-0.2-0.2v-30.77c0-6.02-2.91-9.02-8.74-9.02c-3.29,0-5.94,0.89-7.93,2.66c-2,1.77-2.99,4.15-2.99,7.12v30.01
	c0,0.11-0.09,0.2-0.2,0.2h-13.19c-0.11,0-0.2-0.09-0.2-0.2v-49.1C222.81,390.08,222.9,389.99,223.01,389.99z"/>
<path d="M287.12,371.86v11.19c0,0.11-0.09,0.2-0.2,0.2h-13.19c-0.11,0-0.2-0.09-0.2-0.2v-11.19c0-0.11,0.09-0.2,0.2-0.2h13.19
	C287.03,371.66,287.12,371.75,287.12,371.86z M287.12,390.19v49.1c0,0.11-0.09,0.2-0.2,0.2h-13.19c-0.11,0-0.2-0.09-0.2-0.2v-49.1
	c0-0.11,0.09-0.2,0.2-0.2h13.19C287.03,389.99,287.12,390.08,287.12,390.19z"/>
<path d="M338.63,418.3h-34.95c-0.12,0-0.21,0.1-0.2,0.22c0.5,8.09,4.49,12.13,11.96,12.13c2.66,0,5-0.66,7.03-2
	c1.97-1.29,3.19-2.7,3.67-4.24c0.03-0.08,0.1-0.13,0.18-0.13h11.46c0.14,0,0.23,0.14,0.19,0.26c-3.4,10.84-11.13,16.27-23.19,16.27
	c-7.16,0-13.1-2.33-17.81-6.98c-4.72-4.66-7.08-10.72-7.08-18.19c0-7.98,2.44-14.41,7.32-19.28c4.88-4.88,10.93-7.31,18.15-7.31
	c6.78,0,12.41,2.58,16.91,7.74c4.5,5.16,6.75,11.51,6.75,19.05c0,0.71-0.06,1.47-0.17,2.29C338.81,418.22,338.73,418.3,338.63,418.3
	z M314.58,399.21c-2.28,0-4.27,0.49-5.98,1.47c-1.71,0.98-2.98,2.25-3.8,3.8c-0.79,1.49-1.26,3.14-1.41,4.96
	c-0.01,0.12,0.09,0.22,0.2,0.22h21.68c0.12,0,0.22-0.11,0.2-0.24c-0.47-2.93-1.6-5.36-3.38-7.27
	C320.25,400.19,317.74,399.21,314.58,399.21z"/>
</svg>
