<svg id="Calque_1" xmlns="http://www.w3.org/2000/svg" viewBox="0 0 566.9 566.9"><style>.st0{fill:#fff}.st1{fill:#c7383c}.st2{fill:url(#SVGID_1_)}.st3{fill:url(#SVGID_2_)}.st4{fill:url(#SVGID_3_)}.st5{fill:url(#SVGID_4_)}.st6{fill:url(#SVGID_5_)}.st7{fill:url(#SVGID_6_)}.st8{fill:url(#SVGID_7_)}.st9{fill:url(#SVGID_8_)}.st10{fill:url(#SVGID_9_)}.st11{fill:url(#SVGID_10_)}.st12{fill:url(#SVGID_11_)}.st13{fill:url(#SVGID_12_)}.st14{fill:url(#SVGID_13_)}.st15{fill:url(#SVGID_14_)}.st16{fill:url(#SVGID_15_)}.st17{fill:url(#SVGID_16_)}.st18{fill:url(#SVGID_17_)}.st19{fill:url(#SVGID_18_)}</style><path class="st0" d="M420 384.5H146.9c-19.6 0-35.4-15.9-35.4-35.4V217.9c0-19.6 15.9-35.4 35.4-35.4H420c19.6 0 35.4 15.9 35.4 35.4V349c.1 19.6-15.8 35.5-35.4 35.5z"/><path class="st1" d="M257.9 303.9c9.9 0 15.2-9.4 15.2-18.1 0-8.8-5.3-18.1-15.2-18.1-9.9 0-15.2 9.4-15.2 18.1 0 8.7 5.3 18.1 15.2 18.1m0-48.9c18.6 0 29.1 13.6 29.1 30.7s-10.5 30.7-29.1 30.7-29.1-13.6-29.1-30.7c0-17 10.5-30.7 29.1-30.7"/><linearGradient id="SVGID_1_" gradientUnits="userSpaceOnUse" x1="283.465" y1="390" x2="283.465" y2="170"><stop offset=".05" stop-color="#c62e35"/><stop offset=".115" stop-color="#cc5436"/><stop offset=".205" stop-color="#d67b34"/><stop offset=".297" stop-color="#df9a2f"/><stop offset=".387" stop-color="#e7b028"/><stop offset=".477" stop-color="#edbf20"/><stop offset=".565" stop-color="#f0c817"/><stop offset=".65" stop-color="#f2cb13"/></linearGradient><path class="st2" d="M425.9 389H141c-18.7 0-33.9-15.2-33.9-33.9V211.9c0-18.7 15.2-33.9 33.9-33.9h284.9c18.7 0 33.9 15.2 33.9 33.9V355c.1 18.7-15.2 34-33.9 34zM141 189.2c-12.5 0-22.7 10.2-22.7 22.7V355c0 12.5 10.2 22.7 22.7 22.7h284.9c12.5 0 22.7-10.2 22.7-22.7V211.9c0-12.5-10.2-22.7-22.7-22.7H141z"/><linearGradient id="SVGID_2_" gradientUnits="userSpaceOnUse" x1="283.464" y1="390" x2="283.464" y2="170"><stop offset=".05" stop-color="#c62e35"/><stop offset=".115" stop-color="#cc5436"/><stop offset=".205" stop-color="#d67b34"/><stop offset=".297" stop-color="#df9a2f"/><stop offset=".387" stop-color="#e7b028"/><stop offset=".477" stop-color="#edbf20"/><stop offset=".565" stop-color="#f0c817"/><stop offset=".65" stop-color="#f2cb13"/></linearGradient><path class="st3" d="M391.7 292.1H383v-15.9h8c3.9 0 7.5 3.3 7.5 7.7 0 5.3-3.5 8.2-6.8 8.2m-8.7-40.6h7.6c3.8 0 6.8 3.4 6.8 7.8s-2.9 7.7-6.8 7.7H383v-15.5zm18.2 20.5l-1.7-.7 1.7-.7c4-1.7 6.3-6.8 6.3-10.8v-.8c0-9.3-7.5-16.8-16.8-16.8h-17.8v58.9h18.8c9.3 0 16.8-7.5 16.8-16.8v-1.2c0-4-3.3-9.5-7.3-11.1m-50.6 29.2h10.2v-58.9h-10.2v58.9zm-26.4-9.1h-8.6v-15.9h8c3.9 0 7.5 3.3 7.5 7.7-.1 5.3-3.6 8.2-6.9 8.2m-8.6-40.6h7.6c3.8 0 6.8 3.4 6.8 7.8s-2.9 7.7-6.8 7.7h-7.6v-15.5zm18.1 20.5l-1.7-.7 1.7-.7c3.9-1.7 6.3-6.8 6.3-10.8v-.8c0-9.3-7.5-16.8-16.8-16.8h-17.8v58.9h18.8c9.3 0 16.8-7.5 16.8-16.8v-1.2c0-4-3.3-9.5-7.3-11.1m-149.2 4l-15.9-33.7h-10.1v58.9h10v-37.5l12.6 25.2h6.8l12.5-25.2v37.5h10v-58.9h-10.1L184.5 276z"/><linearGradient id="SVGID_3_" gradientUnits="userSpaceOnUse" x1="221.368" y1="390" x2="221.368" y2="170"><stop offset=".05" stop-color="#c62e35"/><stop offset=".115" stop-color="#cc5436"/><stop offset=".205" stop-color="#d67b34"/><stop offset=".297" stop-color="#df9a2f"/><stop offset=".387" stop-color="#e7b028"/><stop offset=".477" stop-color="#edbf20"/><stop offset=".565" stop-color="#f0c817"/><stop offset=".65" stop-color="#f2cb13"/></linearGradient><path class="st4" d="M220.6 242.3h1.5v6.5h-1.5z"/><linearGradient id="SVGID_4_" gradientUnits="userSpaceOnUse" x1="221.368" y1="390" x2="221.368" y2="170"><stop offset=".05" stop-color="#c62e35"/><stop offset=".115" stop-color="#cc5436"/><stop offset=".205" stop-color="#d67b34"/><stop offset=".297" stop-color="#df9a2f"/><stop offset=".387" stop-color="#e7b028"/><stop offset=".477" stop-color="#edbf20"/><stop offset=".565" stop-color="#f0c817"/><stop offset=".65" stop-color="#f2cb13"/></linearGradient><path class="st5" d="M220.6 255.3h1.5v6.5h-1.5z"/><linearGradient id="SVGID_5_" gradientUnits="userSpaceOnUse" x1="221.368" y1="390" x2="221.368" y2="170"><stop offset=".05" stop-color="#c62e35"/><stop offset=".115" stop-color="#cc5436"/><stop offset=".205" stop-color="#d67b34"/><stop offset=".297" stop-color="#df9a2f"/><stop offset=".387" stop-color="#e7b028"/><stop offset=".477" stop-color="#edbf20"/><stop offset=".565" stop-color="#f0c817"/><stop offset=".65" stop-color="#f2cb13"/></linearGradient><path class="st6" d="M220.6 268.2h1.5v6.5h-1.5z"/><linearGradient id="SVGID_6_" gradientUnits="userSpaceOnUse" x1="221.368" y1="390" x2="221.368" y2="170"><stop offset=".05" stop-color="#c62e35"/><stop offset=".115" stop-color="#cc5436"/><stop offset=".205" stop-color="#d67b34"/><stop offset=".297" stop-color="#df9a2f"/><stop offset=".387" stop-color="#e7b028"/><stop offset=".477" stop-color="#edbf20"/><stop offset=".565" stop-color="#f0c817"/><stop offset=".65" stop-color="#f2cb13"/></linearGradient><path class="st7" d="M220.6 281.2h1.5v6.5h-1.5z"/><linearGradient id="SVGID_7_" gradientUnits="userSpaceOnUse" x1="221.368" y1="390" x2="221.368" y2="170"><stop offset=".05" stop-color="#c62e35"/><stop offset=".115" stop-color="#cc5436"/><stop offset=".205" stop-color="#d67b34"/><stop offset=".297" stop-color="#df9a2f"/><stop offset=".387" stop-color="#e7b028"/><stop offset=".477" stop-color="#edbf20"/><stop offset=".565" stop-color="#f0c817"/><stop offset=".65" stop-color="#f2cb13"/></linearGradient><path class="st8" d="M220.6 294.2h1.5v6.5h-1.5z"/><linearGradient id="SVGID_8_" gradientUnits="userSpaceOnUse" x1="221.368" y1="390" x2="221.368" y2="170"><stop offset=".05" stop-color="#c62e35"/><stop offset=".115" stop-color="#cc5436"/><stop offset=".205" stop-color="#d67b34"/><stop offset=".297" stop-color="#df9a2f"/><stop offset=".387" stop-color="#e7b028"/><stop offset=".477" stop-color="#edbf20"/><stop offset=".565" stop-color="#f0c817"/><stop offset=".65" stop-color="#f2cb13"/></linearGradient><path class="st9" d="M220.6 307.2h1.5v6.5h-1.5z"/><linearGradient id="SVGID_9_" gradientUnits="userSpaceOnUse" x1="221.368" y1="390" x2="221.368" y2="170"><stop offset=".05" stop-color="#c62e35"/><stop offset=".115" stop-color="#cc5436"/><stop offset=".205" stop-color="#d67b34"/><stop offset=".297" stop-color="#df9a2f"/><stop offset=".387" stop-color="#e7b028"/><stop offset=".477" stop-color="#edbf20"/><stop offset=".565" stop-color="#f0c817"/><stop offset=".65" stop-color="#f2cb13"/></linearGradient><path class="st10" d="M220.6 320.1h1.5v6.5h-1.5z"/><linearGradient id="SVGID_10_" gradientUnits="userSpaceOnUse" x1="221.368" y1="390" x2="221.368" y2="170"><stop offset=".05" stop-color="#c62e35"/><stop offset=".115" stop-color="#cc5436"/><stop offset=".205" stop-color="#d67b34"/><stop offset=".297" stop-color="#df9a2f"/><stop offset=".387" stop-color="#e7b028"/><stop offset=".477" stop-color="#edbf20"/><stop offset=".565" stop-color="#f0c817"/><stop offset=".65" stop-color="#f2cb13"/></linearGradient><path class="st11" d="M220.6 333.1h1.5v6.5h-1.5z"/><linearGradient id="SVGID_11_" gradientUnits="userSpaceOnUse" x1="294.443" y1="390" x2="294.443" y2="170"><stop offset=".05" stop-color="#c62e35"/><stop offset=".115" stop-color="#cc5436"/><stop offset=".205" stop-color="#d67b34"/><stop offset=".297" stop-color="#df9a2f"/><stop offset=".387" stop-color="#e7b028"/><stop offset=".477" stop-color="#edbf20"/><stop offset=".565" stop-color="#f0c817"/><stop offset=".65" stop-color="#f2cb13"/></linearGradient><path class="st12" d="M293.7 242.3h1.5v6.5h-1.5z"/><linearGradient id="SVGID_12_" gradientUnits="userSpaceOnUse" x1="294.443" y1="390" x2="294.443" y2="170"><stop offset=".05" stop-color="#c62e35"/><stop offset=".115" stop-color="#cc5436"/><stop offset=".205" stop-color="#d67b34"/><stop offset=".297" stop-color="#df9a2f"/><stop offset=".387" stop-color="#e7b028"/><stop offset=".477" stop-color="#edbf20"/><stop offset=".565" stop-color="#f0c817"/><stop offset=".65" stop-color="#f2cb13"/></linearGradient><path class="st13" d="M293.7 255.3h1.5v6.5h-1.5z"/><linearGradient id="SVGID_13_" gradientUnits="userSpaceOnUse" x1="294.443" y1="390" x2="294.443" y2="170"><stop offset=".05" stop-color="#c62e35"/><stop offset=".115" stop-color="#cc5436"/><stop offset=".205" stop-color="#d67b34"/><stop offset=".297" stop-color="#df9a2f"/><stop offset=".387" stop-color="#e7b028"/><stop offset=".477" stop-color="#edbf20"/><stop offset=".565" stop-color="#f0c817"/><stop offset=".65" stop-color="#f2cb13"/></linearGradient><path class="st14" d="M293.7 268.2h1.5v6.5h-1.5z"/><linearGradient id="SVGID_14_" gradientUnits="userSpaceOnUse" x1="294.443" y1="390" x2="294.443" y2="170"><stop offset=".05" stop-color="#c62e35"/><stop offset=".115" stop-color="#cc5436"/><stop offset=".205" stop-color="#d67b34"/><stop offset=".297" stop-color="#df9a2f"/><stop offset=".387" stop-color="#e7b028"/><stop offset=".477" stop-color="#edbf20"/><stop offset=".565" stop-color="#f0c817"/><stop offset=".65" stop-color="#f2cb13"/></linearGradient><path class="st15" d="M293.7 281.2h1.5v6.5h-1.5z"/><linearGradient id="SVGID_15_" gradientUnits="userSpaceOnUse" x1="294.443" y1="390" x2="294.443" y2="170"><stop offset=".05" stop-color="#c62e35"/><stop offset=".115" stop-color="#cc5436"/><stop offset=".205" stop-color="#d67b34"/><stop offset=".297" stop-color="#df9a2f"/><stop offset=".387" stop-color="#e7b028"/><stop offset=".477" stop-color="#edbf20"/><stop offset=".565" stop-color="#f0c817"/><stop offset=".65" stop-color="#f2cb13"/></linearGradient><path class="st16" d="M293.7 294.2h1.5v6.5h-1.5z"/><linearGradient id="SVGID_16_" gradientUnits="userSpaceOnUse" x1="294.443" y1="390" x2="294.443" y2="170"><stop offset=".05" stop-color="#c62e35"/><stop offset=".115" stop-color="#cc5436"/><stop offset=".205" stop-color="#d67b34"/><stop offset=".297" stop-color="#df9a2f"/><stop offset=".387" stop-color="#e7b028"/><stop offset=".477" stop-color="#edbf20"/><stop offset=".565" stop-color="#f0c817"/><stop offset=".65" stop-color="#f2cb13"/></linearGradient><path class="st17" d="M293.7 307.2h1.5v6.5h-1.5z"/><linearGradient id="SVGID_17_" gradientUnits="userSpaceOnUse" x1="294.443" y1="390" x2="294.443" y2="170"><stop offset=".05" stop-color="#c62e35"/><stop offset=".115" stop-color="#cc5436"/><stop offset=".205" stop-color="#d67b34"/><stop offset=".297" stop-color="#df9a2f"/><stop offset=".387" stop-color="#e7b028"/><stop offset=".477" stop-color="#edbf20"/><stop offset=".565" stop-color="#f0c817"/><stop offset=".65" stop-color="#f2cb13"/></linearGradient><path class="st18" d="M293.7 320.1h1.5v6.5h-1.5z"/><linearGradient id="SVGID_18_" gradientUnits="userSpaceOnUse" x1="294.443" y1="390" x2="294.443" y2="170"><stop offset=".05" stop-color="#c62e35"/><stop offset=".115" stop-color="#cc5436"/><stop offset=".205" stop-color="#d67b34"/><stop offset=".297" stop-color="#df9a2f"/><stop offset=".387" stop-color="#e7b028"/><stop offset=".477" stop-color="#edbf20"/><stop offset=".565" stop-color="#f0c817"/><stop offset=".65" stop-color="#f2cb13"/></linearGradient><path class="st19" d="M293.7 333.1h1.5v6.5h-1.5z"/></svg>