<?xml version="1.0" encoding="utf-8"?>
<!-- Generator: Adobe Illustrator 23.0.4, SVG Export Plug-In . SVG Version: 6.00 Build 0)  -->
<svg version="1.1" id="Calque_1" xmlns="http://www.w3.org/2000/svg" xmlns:xlink="http://www.w3.org/1999/xlink" x="0px" y="0px"
	 viewBox="0 0 283.5 283.5" style="enable-background:new 0 0 283.5 283.5;" xml:space="preserve">
<style type="text/css">
	.st0{fill:#FFFFFF;}
	.st1{fill:url(#SVGID_1_);}
	.st2{fill:url(#SVGID_2_);}
	.st3{fill:url(#SVGID_3_);}
	.st4{fill:url(#SVGID_4_);}
</style>
<path class="st0" d="M142,16.7c-69.5,0-126,55.9-126,124.7c0,68.8,56.5,124.7,126,124.7c69.4,0,125.9-56,125.9-124.7
	C267.9,72.7,211.4,16.7,142,16.7z"/>
<g>
	<g>
		<g>
			<g>
				<linearGradient id="SVGID_1_" gradientUnits="userSpaceOnUse" x1="96.98" y1="272.9693" x2="100.3503" y2="6.7213">
					<stop  offset="5.000000e-02" style="stop-color:#E4042C"/>
					<stop  offset="5.206627e-02" style="stop-color:#E4092C"/>
					<stop  offset="0.1387" style="stop-color:#E9532F"/>
					<stop  offset="0.2264" style="stop-color:#EF7D2D"/>
					<stop  offset="0.3135" style="stop-color:#F59C27"/>
					<stop  offset="0.3998" style="stop-color:#F9B21F"/>
					<stop  offset="0.4851" style="stop-color:#FDC114"/>
					<stop  offset="0.569" style="stop-color:#FECA08"/>
					<stop  offset="0.65" style="stop-color:#FFCD03"/>
				</linearGradient>
				<path class="st1" d="M99.1,139.3c-19.7,0-35.7-15.9-35.7-35.5s16-35.5,35.7-35.5c19.7,0,35.7,15.9,35.7,35.5
					S118.8,139.3,99.1,139.3z M99.1,83.7c-11.3,0-20.4,9-20.4,20.2c0,11.1,9.2,20.2,20.4,20.2c11.3,0,20.4-9,20.4-20.2
					C119.5,92.7,110.4,83.7,99.1,83.7z"/>
			</g>
			<g>
				<linearGradient id="SVGID_2_" gradientUnits="userSpaceOnUse" x1="177.1762" y1="273.9845" x2="180.5464" y2="7.7365">
					<stop  offset="5.000000e-02" style="stop-color:#E4042C"/>
					<stop  offset="5.206627e-02" style="stop-color:#E4092C"/>
					<stop  offset="0.1387" style="stop-color:#E9532F"/>
					<stop  offset="0.2264" style="stop-color:#EF7D2D"/>
					<stop  offset="0.3135" style="stop-color:#F59C27"/>
					<stop  offset="0.3998" style="stop-color:#F9B21F"/>
					<stop  offset="0.4851" style="stop-color:#FDC114"/>
					<stop  offset="0.569" style="stop-color:#FECA08"/>
					<stop  offset="0.65" style="stop-color:#FFCD03"/>
				</linearGradient>
				<path class="st2" d="M178.4,214.6c-19.7,0-35.7-15.9-35.7-35.5c0-19.6,16-35.5,35.7-35.5c19.7,0,35.7,15.9,35.7,35.5
					C214.1,198.7,198.1,214.6,178.4,214.6z M178.4,159c-11.3,0-20.4,9-20.4,20.2c0,11.1,9.2,20.2,20.4,20.2c11.3,0,20.4-9,20.4-20.2
					C198.8,168,189.6,159,178.4,159z"/>
			</g>
			<g>
				<linearGradient id="SVGID_3_" gradientUnits="userSpaceOnUse" x1="137.9113" y1="273.4874" x2="141.2815" y2="7.2394">
					<stop  offset="5.000000e-02" style="stop-color:#E4042C"/>
					<stop  offset="5.206627e-02" style="stop-color:#E4092C"/>
					<stop  offset="0.1387" style="stop-color:#E9532F"/>
					<stop  offset="0.2264" style="stop-color:#EF7D2D"/>
					<stop  offset="0.3135" style="stop-color:#F59C27"/>
					<stop  offset="0.3998" style="stop-color:#F9B21F"/>
					<stop  offset="0.4851" style="stop-color:#FDC114"/>
					<stop  offset="0.569" style="stop-color:#FECA08"/>
					<stop  offset="0.65" style="stop-color:#FFCD03"/>
				</linearGradient>
				<path class="st3" d="M81,208c-2,0-3.9-0.8-5.4-2.3c-3-3-3-7.8,0-10.8L192.8,78.8c3-3,7.8-3,10.8,0c3,3,3,7.8,0,10.8L86.3,205.8
					C84.9,207.3,82.9,208,81,208z"/>
			</g>
		</g>
	</g>
</g>
<g>
	<linearGradient id="SVGID_4_" gradientUnits="userSpaceOnUse" x1="140.3233" y1="273.518" x2="143.6959" y2="7.0815">
		<stop  offset="5.000000e-02" style="stop-color:#E4042C"/>
		<stop  offset="5.206627e-02" style="stop-color:#E4092C"/>
		<stop  offset="0.1387" style="stop-color:#E9532F"/>
		<stop  offset="0.2264" style="stop-color:#EF7D2D"/>
		<stop  offset="0.3135" style="stop-color:#F59C27"/>
		<stop  offset="0.3998" style="stop-color:#F9B21F"/>
		<stop  offset="0.4851" style="stop-color:#FDC114"/>
		<stop  offset="0.569" style="stop-color:#FECA08"/>
		<stop  offset="0.65" style="stop-color:#FFCD03"/>
	</linearGradient>
	<path class="st4" d="M142,274.7c-73.5,0-133.2-59.8-133.2-133.2C8.8,68,68.5,8.2,142,8.2c73.5,0,133.2,59.8,133.2,133.2
		C275.2,214.9,215.5,274.7,142,274.7z M142,25.2c-64.1,0-116.2,52.1-116.2,116.2c0,64.1,52.1,116.2,116.2,116.2
		s116.2-52.1,116.2-116.2C258.2,77.4,206.1,25.2,142,25.2z"/>
</g>
</svg>
